<svg class="svgComment" width="25" height="25" viewBox="0 0 35 29" fill="none" xmlns="http://www.w3.org/2000/svg">
    <rect width="29" height="29" fill="white"/>
    <path d="M14.5 25.375C16.6509 25.375 18.7534 24.7372 20.5418 23.5422C22.3302 22.3473 23.7241 20.6488 24.5472 18.6617C25.3703 16.6745 25.5857 14.4879 25.166 12.3784C24.7464 10.2689 23.7107 8.33111 22.1898 6.81022C20.6689 5.28932 18.7311 4.25358 16.6216 3.83396C14.5121 3.41435 12.3255 3.62971 10.3383 4.45281C8.35117 5.27592 6.65273 6.66979 5.45777 8.45818C4.26281 10.2466 3.625 12.3491 3.625 14.5C3.625 16.298 4.06 17.9933 4.83333 19.4868L3.625 25.375L9.51321 24.1667C11.0067 24.94 12.7032 25.375 14.5 25.375Z" stroke="#585757" stroke-width="2.5" stroke-linecap="round" stroke-linejoin="round"/>
    </svg>