<svg width="28" height="28" viewBox="0 0 28 28" fill="none" xmlns="http://www.w3.org/2000/svg">
    <path d="M23.73 10.8733L7.39671 2.70667C6.75212 2.38584 6.02426 2.27163 5.31238 2.37959C4.60051 2.48756 3.93925 2.81245 3.41876 3.30997C2.89828 3.80749 2.54391 4.45342 2.40395 5.15971C2.264 5.866 2.34528 6.59826 2.63671 7.25667L5.43671 13.5217C5.50024 13.6731 5.53296 13.8357 5.53296 14C5.53296 14.1643 5.50024 14.3269 5.43671 14.4783L2.63671 20.7433C2.39953 21.2762 2.29926 21.8598 2.34502 22.4413C2.39078 23.0227 2.58111 23.5835 2.89872 24.0727C3.21634 24.5618 3.65116 24.9639 4.16367 25.2422C4.67618 25.5206 5.25014 25.6665 5.83338 25.6667C6.37965 25.6612 6.91778 25.5337 7.40838 25.2933L23.7417 17.1267C24.3211 16.8352 24.8081 16.3885 25.1483 15.8364C25.4886 15.2843 25.6688 14.6485 25.6688 14C25.6688 13.3515 25.4886 12.7157 25.1483 12.1636C24.8081 11.6115 24.3211 11.1648 23.7417 10.8733H23.73ZM22.6917 15.0383L6.35838 23.205C6.1439 23.308 5.90306 23.3429 5.66816 23.3052C5.43326 23.2674 5.21552 23.1587 5.04414 22.9937C4.87276 22.8286 4.75594 22.6151 4.70933 22.3818C4.66272 22.1485 4.68856 21.9065 4.78338 21.6883L7.57171 15.4233C7.60781 15.3397 7.63897 15.254 7.66504 15.1667H15.7034C16.0128 15.1667 16.3095 15.0437 16.5283 14.825C16.7471 14.6062 16.87 14.3094 16.87 14C16.87 13.6906 16.7471 13.3938 16.5283 13.175C16.3095 12.9562 16.0128 12.8333 15.7034 12.8333H7.66504C7.63897 12.746 7.60781 12.6603 7.57171 12.5767L4.78338 6.31167C4.68856 6.09346 4.66272 5.85147 4.70933 5.61816C4.75594 5.38485 4.87276 5.17137 5.04414 5.00634C5.21552 4.84131 5.43326 4.73262 5.66816 4.69484C5.90306 4.65707 6.1439 4.69202 6.35838 4.795L22.6917 12.9617C22.8828 13.0596 23.0432 13.2083 23.1552 13.3915C23.2672 13.5747 23.3264 13.7853 23.3264 14C23.3264 14.2147 23.2672 14.4253 23.1552 14.6085C23.0432 14.7917 22.8828 14.9404 22.6917 15.0383Z" fill="#808080"/>
    </svg>